<?xml version="1.0" standalone="no"?>
<!DOCTYPE svg PUBLIC "-//W3C//DTD SVG 20010904//EN"
 "http://www.w3.org/TR/2001/REC-SVG-20010904/DTD/svg10.dtd">
<svg version="1.0" xmlns="http://www.w3.org/2000/svg"
 width="597.000000pt" height="843.000000pt" viewBox="0 0 597.000000 843.000000"
 preserveAspectRatio="xMidYMid meet">
<metadata>
Created by potrace 1.15, written by Peter Selinger 2001-2017
</metadata>
<g transform="translate(0.000000,843.000000) scale(0.100000,-0.100000)"
fill="#000000" stroke="none">
<path d="M2360 7564 c-82 -17 -213 -81 -271 -133 -49 -43 -100 -129 -119 -200
-25 -95 -2 -342 40 -420 7 -13 4 -29 -11 -57 -31 -59 -23 -161 20 -241 23 -42
30 -67 26 -85 -15 -58 57 -144 112 -135 19 3 25 -7 53 -87 18 -50 47 -123 65
-163 28 -61 41 -76 86 -106 30 -19 71 -41 92 -48 35 -12 37 -15 37 -56 0 -39
-2 -43 -25 -43 -14 0 -37 -11 -51 -26 -21 -20 -25 -31 -20 -58 l6 -33 -39 10
c-79 21 -173 -34 -201 -117 -8 -24 -24 -42 -55 -60 -60 -35 -120 -107 -146
-175 -18 -44 -23 -82 -26 -176 l-4 -120 54 130 c57 137 158 347 164 341 3 -2
-15 -42 -38 -87 -110 -219 -206 -486 -235 -651 -30 -173 -7 -317 63 -391 15
-15 23 -27 19 -27 -15 0 58 -122 91 -150 43 -38 125 -80 156 -80 22 0 25 5 31
61 12 115 19 106 -86 111 -67 3 -107 10 -142 26 -27 12 -47 24 -44 27 2 3 24
-5 48 -16 60 -29 182 -36 276 -16 150 32 297 110 412 221 40 38 58 50 46 32
-53 -84 -268 -215 -413 -252 -56 -15 -73 -23 -76 -39 -12 -62 -60 -507 -55
-510 14 -9 212 -45 302 -56 96 -11 471 -10 482 2 9 8 -12 287 -30 399 -8 52
-30 170 -49 263 -19 92 -35 175 -34 185 0 9 20 -72 44 -181 44 -203 69 -374
81 -554 6 -96 8 -103 28 -103 47 0 48 7 36 156 -14 185 -34 312 -81 531 -38
178 -44 211 -35 202 7 -7 84 -374 101 -479 8 -52 20 -164 27 -247 6 -84 15
-153 20 -153 26 0 214 68 271 98 77 40 87 54 62 82 -12 14 -21 54 -31 152 -26
254 -69 509 -120 712 l-25 99 25 26 c35 36 33 55 -14 131 -22 35 -42 83 -46
107 -7 47 -7 47 -35 33 -10 -6 -19 -7 -19 -2 0 5 12 14 26 20 14 7 23 16 19
21 -3 5 -1 12 5 16 5 3 10 0 10 -8 0 -34 268 -114 415 -124 197 -13 324 62
410 242 68 141 99 333 93 564 l-3 134 28 8 c53 14 57 24 57 126 0 92 -1 95
-30 125 -35 35 -40 86 -14 161 l16 47 386 0 c435 0 421 -2 517 82 57 51 86
105 92 178 17 185 -157 334 -334 287 -56 -15 -63 -11 -63 32 0 41 -71 159
-128 213 -66 63 -116 91 -199 113 -153 40 -308 -2 -425 -116 -53 -52 -118
-160 -118 -196 0 -18 -9 -16 -61 9 -54 26 -156 29 -210 6 -50 -22 -116 -83
-141 -131 -11 -22 -22 -63 -25 -92 -5 -51 -7 -53 -44 -64 -77 -23 -129 -108
-115 -186 9 -48 68 -112 114 -125 21 -5 100 -10 177 -11 l140 -1 51 -102 52
-102 -25 -22 c-23 -20 -24 -25 -17 -114 5 -82 9 -96 31 -115 13 -13 30 -23 37
-23 13 0 13 -11 -5 -170 -28 -249 -90 -425 -167 -476 -16 -11 -44 -17 -72 -16
-82 2 -330 91 -519 187 -69 35 -94 54 -127 97 -40 53 -93 88 -132 88 -15 0
-18 5 -14 25 3 16 -2 33 -14 47 -16 17 -16 22 -5 26 31 11 100 85 129 140 46
87 92 232 92 292 0 28 -5 84 -10 123 -22 158 -24 143 15 167 37 23 79 85 96
142 5 18 10 67 10 109 1 63 -4 86 -25 127 -29 58 -92 102 -144 102 -31 0 -32
1 -32 48 0 113 -60 259 -145 350 -122 131 -271 176 -455 136z m2082 -175 c157
-33 296 -172 329 -331 6 -29 12 -54 14 -56 1 -1 18 5 38 13 45 19 147 19 191
1 47 -19 104 -73 129 -120 30 -57 30 -165 0 -222 -24 -45 -84 -103 -135 -131
-31 -17 -71 -18 -562 -18 l-528 0 -24 30 -24 30 38 31 c33 29 36 34 27 60 -19
53 -81 41 -173 -34 -34 -27 -42 -39 -38 -56 21 -73 33 -66 -110 -66 -146 0
-190 9 -228 47 -83 83 -38 217 82 239 31 6 32 8 32 53 0 92 80 203 167 232 19
6 65 9 103 7 52 -3 76 -9 108 -31 23 -15 43 -27 45 -27 2 0 10 19 17 43 55
184 217 312 402 316 26 1 71 -4 100 -10z m-1542 -179 c19 -10 33 -48 45 -126
l6 -41 -63 -7 c-113 -13 -700 -144 -764 -171 l-37 -15 7 52 c9 63 35 126 64
151 50 45 273 124 427 152 85 16 289 19 315 5z m159 -247 c93 -70 86 -287 -12
-369 -29 -24 -37 -26 -102 -22 -161 11 -298 137 -300 275 0 72 25 96 120 118
162 36 243 35 294 -2z m-609 -98 c39 -20 65 -89 56 -153 -14 -109 -105 -231
-209 -281 -52 -25 -87 -26 -132 -6 -127 61 -189 252 -109 336 42 44 93 68 208
94 121 28 148 30 186 10z m169 -121 c51 -117 184 -211 315 -221 l62 -5 17
-127 c19 -140 16 -181 -26 -292 -56 -148 -105 -215 -182 -250 -58 -27 -84 -24
-234 27 -142 48 -203 78 -238 116 -18 20 -69 139 -124 293 -14 37 -17 40 -50
37 -30 -3 -41 2 -63 28 -14 17 -26 42 -26 55 l0 24 36 -24 c58 -40 108 -51
161 -37 94 26 198 114 246 209 26 50 50 147 47 186 -3 34 -1 37 18 37 11 0 25
-19 41 -56z m1291 -79 c0 -8 -16 -26 -35 -41 -19 -14 -35 -30 -35 -34 0 -4 16
-28 36 -54 35 -46 35 -46 18 -76 -28 -46 -8 -47 34 -2 42 46 40 45 158 46 l81
1 -13 -39 c-8 -21 -14 -65 -14 -97 l0 -59 -47 0 c-27 0 -84 -3 -129 -6 l-81
-7 -67 133 c-36 73 -66 141 -66 151 0 21 52 66 105 90 41 19 55 17 55 -6z
m263 -388 c14 -9 19 -33 23 -97 3 -48 1 -91 -4 -99 -11 -15 -130 -29 -259 -30
-88 -1 -91 3 -94 113 -1 55 2 81 12 91 12 12 58 17 285 34 11 0 28 -5 37 -12z
m-1688 -542 c3 -19 7 -50 10 -68 5 -29 18 -42 106 -101 55 -38 98 -70 96 -72
-2 -2 -38 4 -81 13 -77 17 -77 17 -123 77 -24 33 -54 78 -65 100 l-20 40 26
23 c36 31 44 29 51 -12z m778 -393 c15 -16 9 -23 -95 -112 -79 -67 -107 -96
-94 -98 10 -2 26 4 36 13 17 15 19 14 39 -14 l21 -29 -25 -20 c-25 -20 -33
-42 -16 -42 4 0 20 9 33 20 25 19 26 19 43 0 18 -20 18 -21 -9 -49 -35 -36
-16 -54 20 -20 27 25 27 25 56 -26 17 -30 -68 -101 -192 -157 l-99 -46 -61 98
c-33 54 -63 105 -66 114 -8 20 72 152 110 182 69 54 271 203 277 203 3 1 13
-7 22 -17z m-441 -385 c29 -30 160 -257 156 -273 -4 -22 -136 -105 -162 -101
-23 2 -176 240 -176 274 0 20 44 54 130 100 31 16 35 16 52 0z"/>
<path d="M2819 6955 c-65 -13 -156 -51 -146 -61 8 -8 279 17 300 28 9 5 17 18
17 28 0 18 -7 20 -52 19 -29 0 -83 -7 -119 -14z"/>
<path d="M2335 6849 c-84 -19 -197 -62 -202 -76 -3 -8 1 -22 10 -30 14 -14 28
-11 154 36 76 29 145 54 153 57 13 4 13 6 0 14 -18 12 -61 11 -115 -1z"/>
<path d="M2715 6581 c-8 -14 24 -67 59 -100 32 -30 33 -57 4 -72 -13 -6 -37
-27 -55 -46 l-32 -34 -78 7 c-80 7 -103 16 -103 40 0 8 -7 14 -15 14 -22 0
-19 -36 5 -60 11 -11 33 -20 49 -20 15 0 55 -3 89 -6 l61 -7 41 42 c22 22 47
41 54 41 19 0 40 55 32 82 -9 32 -102 132 -111 119z"/>
<path d="M2415 6241 c-7 -12 76 -131 122 -176 70 -68 132 -56 222 41 70 75 78
99 29 90 -18 -3 -79 -8 -135 -12 -114 -8 -186 9 -198 47 -7 20 -30 26 -40 10z
m235 -86 c36 3 81 8 100 12 l34 6 -32 -41 c-41 -51 -90 -82 -131 -82 -26 0
-43 11 -82 51 -27 28 -49 54 -49 58 0 5 21 4 48 -1 26 -5 76 -7 112 -3z"/>
<path d="M3360 3681 c0 -76 5 -367 11 -647 l10 -509 39 -33 c48 -40 59 -84 36
-134 -9 -19 -29 -41 -44 -50 -25 -15 -29 -28 -60 -183 -42 -206 -86 -390 -204
-854 l-93 -364 -45 -21 c-36 -17 -65 -21 -147 -21 -56 0 -104 3 -107 6 -3 3
79 328 182 722 l188 717 -48 312 c-55 360 -81 504 -107 587 l-18 59 73 73 c67
67 89 99 66 99 -5 0 -63 -55 -129 -123 -114 -116 -124 -130 -176 -238 -61
-127 -144 -347 -207 -547 l-41 -132 20 -26 c45 -58 11 -154 -60 -169 -27 -6
-36 -17 -64 -79 -213 -466 -274 -596 -379 -812 -123 -252 -221 -429 -257 -465
-39 -39 -114 -17 -199 58 l-44 40 31 69 c17 38 178 370 358 739 l327 670 19
110 c52 302 78 668 60 840 -20 187 -62 365 -86 365 -10 0 -9 -14 7 -62 80
-257 81 -589 3 -1088 l-24 -155 -360 -740 c-214 -439 -359 -747 -355 -757 3
-9 -10 -47 -29 -85 -44 -88 -60 -138 -52 -164 15 -45 223 -173 363 -223 72
-25 75 -26 138 -11 145 34 174 69 128 162 -21 43 -38 62 -83 91 -57 36 -161
129 -161 143 0 4 21 43 47 86 82 138 445 891 573 1191 12 28 29 52 37 52 27 0
73 31 88 60 20 38 19 101 -1 144 -17 34 -17 35 59 259 111 328 205 535 266
591 20 18 21 18 32 -10 24 -63 59 -244 109 -570 l53 -342 -186 -708 c-102
-390 -187 -718 -189 -728 -2 -14 4 -22 22 -26 28 -7 28 -11 5 -98 -25 -97 -19
-120 39 -155 110 -64 327 -137 410 -137 16 0 67 18 113 40 63 31 84 46 89 65
16 66 -36 130 -150 185 -95 46 -191 124 -181 149 18 43 267 1057 295 1201 31
155 35 167 66 195 41 38 54 64 54 111 0 42 -32 100 -60 109 -13 4 -21 19 -24
48 -5 33 -26 1043 -26 1215 0 23 -4 42 -10 42 -6 0 -10 -53 -10 -139z"/>
</g>
</svg>
